<mxfile host="app.diagrams.net" modified="2022-03-14T10:15:20.063Z" agent="5.0 (Windows NT 10.0; Win64; x64) AppleWebKit/537.36 (KHTML, like Gecko) Chrome/99.0.4844.51 Safari/537.36" etag="oF8rh88DzDSQk2nibwFx" version="17.1.2" type="github">
  <diagram id="rO4eyFzRBv4o_7g1YfI_" name="Page-1">
    <mxGraphModel dx="1533" dy="561" grid="1" gridSize="10" guides="1" tooltips="1" connect="1" arrows="1" fold="1" page="1" pageScale="1" pageWidth="827" pageHeight="1169" math="0" shadow="0">
      <root>
        <mxCell id="0" />
        <mxCell id="1" parent="0" />
        <mxCell id="QDeUESwuI4PjPXHfp-uf-4" value="" style="edgeStyle=orthogonalEdgeStyle;rounded=0;orthogonalLoop=1;jettySize=auto;html=1;" edge="1" parent="1" source="QDeUESwuI4PjPXHfp-uf-1" target="QDeUESwuI4PjPXHfp-uf-3">
          <mxGeometry relative="1" as="geometry" />
        </mxCell>
        <mxCell id="QDeUESwuI4PjPXHfp-uf-11" value="" style="edgeStyle=none;rounded=0;orthogonalLoop=1;jettySize=auto;html=1;" edge="1" parent="1" source="QDeUESwuI4PjPXHfp-uf-1" target="QDeUESwuI4PjPXHfp-uf-10">
          <mxGeometry relative="1" as="geometry" />
        </mxCell>
        <mxCell id="QDeUESwuI4PjPXHfp-uf-14" value="" style="edgeStyle=none;rounded=0;orthogonalLoop=1;jettySize=auto;html=1;" edge="1" parent="1" source="QDeUESwuI4PjPXHfp-uf-1" target="QDeUESwuI4PjPXHfp-uf-13">
          <mxGeometry relative="1" as="geometry" />
        </mxCell>
        <mxCell id="QDeUESwuI4PjPXHfp-uf-17" value="" style="edgeStyle=none;rounded=0;orthogonalLoop=1;jettySize=auto;html=1;" edge="1" parent="1" source="QDeUESwuI4PjPXHfp-uf-1" target="QDeUESwuI4PjPXHfp-uf-16">
          <mxGeometry relative="1" as="geometry" />
        </mxCell>
        <mxCell id="QDeUESwuI4PjPXHfp-uf-1" value="" style="rounded=0;whiteSpace=wrap;html=1;" vertex="1" parent="1">
          <mxGeometry x="354" y="170" width="120" height="60" as="geometry" />
        </mxCell>
        <mxCell id="QDeUESwuI4PjPXHfp-uf-19" value="" style="edgeStyle=none;rounded=0;orthogonalLoop=1;jettySize=auto;html=1;" edge="1" parent="1" target="QDeUESwuI4PjPXHfp-uf-18">
          <mxGeometry relative="1" as="geometry">
            <mxPoint x="450" y="230" as="sourcePoint" />
          </mxGeometry>
        </mxCell>
        <mxCell id="QDeUESwuI4PjPXHfp-uf-2" value="User" style="text;html=1;strokeColor=none;fillColor=none;align=center;verticalAlign=middle;whiteSpace=wrap;rounded=0;" vertex="1" parent="1">
          <mxGeometry x="384" y="185" width="60" height="30" as="geometry" />
        </mxCell>
        <mxCell id="QDeUESwuI4PjPXHfp-uf-3" value="" style="ellipse;whiteSpace=wrap;html=1;rounded=0;" vertex="1" parent="1">
          <mxGeometry x="354" y="30" width="120" height="60" as="geometry" />
        </mxCell>
        <mxCell id="QDeUESwuI4PjPXHfp-uf-5" value="name" style="text;html=1;strokeColor=none;fillColor=none;align=center;verticalAlign=middle;whiteSpace=wrap;rounded=0;" vertex="1" parent="1">
          <mxGeometry x="384" y="45" width="60" height="30" as="geometry" />
        </mxCell>
        <mxCell id="QDeUESwuI4PjPXHfp-uf-10" value="" style="ellipse;whiteSpace=wrap;html=1;rounded=0;" vertex="1" parent="1">
          <mxGeometry x="474" y="75" width="120" height="60" as="geometry" />
        </mxCell>
        <mxCell id="QDeUESwuI4PjPXHfp-uf-12" value="mobile_no" style="text;html=1;strokeColor=none;fillColor=none;align=center;verticalAlign=middle;whiteSpace=wrap;rounded=0;" vertex="1" parent="1">
          <mxGeometry x="504" y="90" width="60" height="30" as="geometry" />
        </mxCell>
        <mxCell id="QDeUESwuI4PjPXHfp-uf-13" value="" style="ellipse;whiteSpace=wrap;html=1;rounded=0;" vertex="1" parent="1">
          <mxGeometry x="250" y="70" width="120" height="60" as="geometry" />
        </mxCell>
        <mxCell id="QDeUESwuI4PjPXHfp-uf-15" value="role" style="text;html=1;strokeColor=none;fillColor=none;align=center;verticalAlign=middle;whiteSpace=wrap;rounded=0;" vertex="1" parent="1">
          <mxGeometry x="280" y="85" width="60" height="30" as="geometry" />
        </mxCell>
        <mxCell id="QDeUESwuI4PjPXHfp-uf-16" value="email" style="ellipse;whiteSpace=wrap;html=1;rounded=0;" vertex="1" parent="1">
          <mxGeometry x="554" y="170" width="120" height="60" as="geometry" />
        </mxCell>
        <mxCell id="QDeUESwuI4PjPXHfp-uf-18" value="" style="ellipse;whiteSpace=wrap;html=1;" vertex="1" parent="1">
          <mxGeometry x="504" y="260" width="120" height="60" as="geometry" />
        </mxCell>
        <mxCell id="QDeUESwuI4PjPXHfp-uf-20" value="password" style="text;html=1;strokeColor=none;fillColor=none;align=center;verticalAlign=middle;whiteSpace=wrap;rounded=0;fontStyle=4" vertex="1" parent="1">
          <mxGeometry x="534" y="275" width="60" height="30" as="geometry" />
        </mxCell>
        <mxCell id="QDeUESwuI4PjPXHfp-uf-26" value="" style="edgeStyle=none;rounded=0;orthogonalLoop=1;jettySize=auto;html=1;" edge="1" parent="1" source="QDeUESwuI4PjPXHfp-uf-23" target="QDeUESwuI4PjPXHfp-uf-25">
          <mxGeometry relative="1" as="geometry" />
        </mxCell>
        <mxCell id="QDeUESwuI4PjPXHfp-uf-31" value="" style="edgeStyle=none;rounded=0;orthogonalLoop=1;jettySize=auto;html=1;" edge="1" parent="1" source="QDeUESwuI4PjPXHfp-uf-23" target="QDeUESwuI4PjPXHfp-uf-30">
          <mxGeometry relative="1" as="geometry" />
        </mxCell>
        <mxCell id="QDeUESwuI4PjPXHfp-uf-37" value="" style="edgeStyle=none;rounded=0;orthogonalLoop=1;jettySize=auto;html=1;" edge="1" parent="1" source="QDeUESwuI4PjPXHfp-uf-23" target="QDeUESwuI4PjPXHfp-uf-36">
          <mxGeometry relative="1" as="geometry" />
        </mxCell>
        <mxCell id="QDeUESwuI4PjPXHfp-uf-40" value="" style="edgeStyle=none;rounded=0;orthogonalLoop=1;jettySize=auto;html=1;" edge="1" parent="1" source="QDeUESwuI4PjPXHfp-uf-23" target="QDeUESwuI4PjPXHfp-uf-39">
          <mxGeometry relative="1" as="geometry" />
        </mxCell>
        <mxCell id="QDeUESwuI4PjPXHfp-uf-23" value="" style="rounded=0;whiteSpace=wrap;html=1;" vertex="1" parent="1">
          <mxGeometry x="-160" y="170" width="120" height="60" as="geometry" />
        </mxCell>
        <mxCell id="QDeUESwuI4PjPXHfp-uf-24" value="Events" style="text;html=1;strokeColor=none;fillColor=none;align=center;verticalAlign=middle;whiteSpace=wrap;rounded=0;" vertex="1" parent="1">
          <mxGeometry x="-130" y="184" width="60" height="30" as="geometry" />
        </mxCell>
        <mxCell id="QDeUESwuI4PjPXHfp-uf-25" value="" style="ellipse;whiteSpace=wrap;html=1;rounded=0;" vertex="1" parent="1">
          <mxGeometry x="-90" y="30" width="120" height="60" as="geometry" />
        </mxCell>
        <mxCell id="QDeUESwuI4PjPXHfp-uf-27" value="SNo" style="text;html=1;strokeColor=none;fillColor=none;align=center;verticalAlign=middle;whiteSpace=wrap;rounded=0;" vertex="1" parent="1">
          <mxGeometry x="-60" y="44" width="60" height="30" as="geometry" />
        </mxCell>
        <mxCell id="QDeUESwuI4PjPXHfp-uf-30" value="event_name" style="ellipse;whiteSpace=wrap;html=1;rounded=0;" vertex="1" parent="1">
          <mxGeometry x="-220" y="25" width="120" height="60" as="geometry" />
        </mxCell>
        <mxCell id="QDeUESwuI4PjPXHfp-uf-36" value="" style="ellipse;whiteSpace=wrap;html=1;rounded=0;" vertex="1" parent="1">
          <mxGeometry x="-320" y="74" width="120" height="60" as="geometry" />
        </mxCell>
        <mxCell id="QDeUESwuI4PjPXHfp-uf-38" value="details" style="ellipse;whiteSpace=wrap;html=1;" vertex="1" parent="1">
          <mxGeometry x="-310" y="80" width="100" height="50" as="geometry" />
        </mxCell>
        <mxCell id="QDeUESwuI4PjPXHfp-uf-39" value="venue" style="ellipse;whiteSpace=wrap;html=1;rounded=0;" vertex="1" parent="1">
          <mxGeometry x="-360" y="170" width="120" height="60" as="geometry" />
        </mxCell>
        <mxCell id="QDeUESwuI4PjPXHfp-uf-45" value="will see" style="rhombus;whiteSpace=wrap;html=1;" vertex="1" parent="1">
          <mxGeometry x="110" y="160" width="80" height="80" as="geometry" />
        </mxCell>
        <mxCell id="QDeUESwuI4PjPXHfp-uf-46" value="" style="endArrow=none;html=1;rounded=0;exitX=1;exitY=0.5;exitDx=0;exitDy=0;entryX=0;entryY=0.5;entryDx=0;entryDy=0;" edge="1" parent="1" source="QDeUESwuI4PjPXHfp-uf-45" target="QDeUESwuI4PjPXHfp-uf-1">
          <mxGeometry width="50" height="50" relative="1" as="geometry">
            <mxPoint x="190" y="220" as="sourcePoint" />
            <mxPoint x="350" y="200" as="targetPoint" />
          </mxGeometry>
        </mxCell>
        <mxCell id="QDeUESwuI4PjPXHfp-uf-47" value="" style="endArrow=none;html=1;rounded=0;entryX=0;entryY=0.5;entryDx=0;entryDy=0;exitX=1;exitY=0.5;exitDx=0;exitDy=0;" edge="1" parent="1" source="QDeUESwuI4PjPXHfp-uf-23" target="QDeUESwuI4PjPXHfp-uf-45">
          <mxGeometry width="50" height="50" relative="1" as="geometry">
            <mxPoint y="270" as="sourcePoint" />
            <mxPoint x="50" y="220" as="targetPoint" />
          </mxGeometry>
        </mxCell>
        <mxCell id="QDeUESwuI4PjPXHfp-uf-53" value="" style="edgeStyle=none;rounded=0;orthogonalLoop=1;jettySize=auto;html=1;" edge="1" parent="1" source="QDeUESwuI4PjPXHfp-uf-48" target="QDeUESwuI4PjPXHfp-uf-52">
          <mxGeometry relative="1" as="geometry" />
        </mxCell>
        <mxCell id="QDeUESwuI4PjPXHfp-uf-48" value="Team" style="rounded=0;whiteSpace=wrap;html=1;" vertex="1" parent="1">
          <mxGeometry x="90" y="360" width="120" height="60" as="geometry" />
        </mxCell>
        <mxCell id="QDeUESwuI4PjPXHfp-uf-49" value="will create" style="rhombus;whiteSpace=wrap;html=1;" vertex="1" parent="1">
          <mxGeometry x="250" y="250" width="80" height="80" as="geometry" />
        </mxCell>
        <mxCell id="QDeUESwuI4PjPXHfp-uf-50" value="" style="endArrow=none;html=1;rounded=0;entryX=0;entryY=1;entryDx=0;entryDy=0;exitX=1;exitY=0;exitDx=0;exitDy=0;" edge="1" parent="1" source="QDeUESwuI4PjPXHfp-uf-49" target="QDeUESwuI4PjPXHfp-uf-1">
          <mxGeometry width="50" height="50" relative="1" as="geometry">
            <mxPoint x="300" y="270" as="sourcePoint" />
            <mxPoint x="350" y="230" as="targetPoint" />
          </mxGeometry>
        </mxCell>
        <mxCell id="QDeUESwuI4PjPXHfp-uf-51" value="" style="endArrow=none;html=1;rounded=0;entryX=0;entryY=1;entryDx=0;entryDy=0;exitX=1;exitY=0;exitDx=0;exitDy=0;" edge="1" parent="1" source="QDeUESwuI4PjPXHfp-uf-48" target="QDeUESwuI4PjPXHfp-uf-49">
          <mxGeometry width="50" height="50" relative="1" as="geometry">
            <mxPoint x="210" y="350" as="sourcePoint" />
            <mxPoint x="260" y="300" as="targetPoint" />
          </mxGeometry>
        </mxCell>
        <mxCell id="QDeUESwuI4PjPXHfp-uf-52" value="" style="ellipse;whiteSpace=wrap;html=1;rounded=0;" vertex="1" parent="1">
          <mxGeometry x="290" y="360" width="120" height="60" as="geometry" />
        </mxCell>
      </root>
    </mxGraphModel>
  </diagram>
</mxfile>
